<?xml version="1.0" standalone="no"?>
<!DOCTYPE svg PUBLIC "-//W3C//DTD SVG 20010904//EN"
 "http://www.w3.org/TR/2001/REC-SVG-20010904/DTD/svg10.dtd">
<svg version="1.0" xmlns="http://www.w3.org/2000/svg"
 width="958.000000pt" height="880.000000pt" viewBox="0 0 958.000000 880.000000"
 preserveAspectRatio="xMidYMid meet">

<g transform="translate(0.000000,880.000000) scale(0.100000,-0.100000)"
fill="#000000" stroke="none">
<path d="M0 4400 l0 -4400 4790 0 4790 0 0 4400 0 4400 -4790 0 -4790 0 0
-4400z m5215 4341 c39 -6 102 -16 140 -22 190 -28 579 -130 696 -182 19 -8 54
-22 79 -32 120 -45 336 -152 476 -236 107 -64 280 -177 308 -200 6 -5 40 -32
76 -60 205 -161 453 -406 590 -584 85 -110 110 -145 110 -153 0 -5 7 -15 15
-22 18 -15 105 -142 105 -153 0 -4 16 -30 35 -57 19 -27 35 -52 35 -55 0 -3
12 -24 26 -46 38 -60 133 -254 164 -334 4 -11 17 -40 28 -65 11 -25 30 -74 42
-110 12 -36 25 -74 30 -85 4 -11 18 -54 30 -95 12 -41 25 -86 30 -100 8 -25
23 -88 40 -165 5 -22 13 -60 19 -85 10 -45 21 -122 41 -275 30 -237 30 -611 1
-820 -6 -38 -12 -86 -15 -105 -8 -59 -40 -229 -55 -295 -18 -79 -75 -280 -91
-320 -4 -11 -13 -36 -20 -55 -7 -19 -16 -44 -20 -55 -4 -11 -14 -36 -21 -55
-67 -187 -231 -496 -378 -710 -39 -57 -57 -81 -118 -160 -36 -48 -174 -211
-205 -245 -21 -21 -34 -43 -29 -48 11 -11 250 -26 434 -27 168 0 190 5 234 52
30 32 31 63 5 128 -72 181 -83 393 -24 452 7 7 12 17 12 23 0 6 15 25 33 41
65 61 82 66 226 76 254 15 377 -21 431 -128 25 -52 29 -136 11 -299 -6 -49
-15 -144 -21 -210 -10 -114 -17 -196 -40 -442 -5 -60 -12 -139 -16 -176 l-6
-68 -101 -49 c-137 -66 -153 -72 -297 -118 -153 -49 -259 -74 -450 -106 -345
-58 -949 -69 -1405 -26 -55 5 -154 14 -220 20 -136 13 -415 45 -520 60 -38 6
-135 19 -215 30 -80 11 -170 24 -200 30 -30 5 -142 24 -248 41 l-193 32 -227
-32 c-125 -17 -254 -36 -287 -41 -200 -30 -553 -73 -810 -99 -93 -10 -158 -15
-472 -41 -158 -13 -813 -13 -945 0 -312 31 -497 67 -708 138 -120 41 -300 122
-319 145 -22 28 -93 686 -108 1004 -7 164 -2 192 45 242 51 54 116 81 239 97
87 11 115 11 181 0 109 -20 167 -48 208 -101 71 -94 84 -231 35 -382 -49 -151
-53 -167 -49 -218 l3 -50 75 -11 c103 -16 572 -22 577 -8 2 6 -9 24 -24 40
-16 16 -53 59 -83 94 -30 36 -58 67 -61 70 -3 3 -37 46 -76 96 -143 184 -284
408 -380 604 -87 177 -123 258 -123 273 0 7 -4 17 -8 22 -5 6 -15 30 -22 55
-8 25 -16 50 -20 55 -4 6 -12 30 -20 55 -7 25 -19 64 -26 87 -159 502 -194
1132 -93 1673 35 183 101 438 139 525 4 11 13 36 20 55 15 44 23 63 49 122 12
26 21 50 21 53 0 14 145 303 187 373 39 65 135 213 193 296 100 144 317 394
436 501 146 131 245 215 293 247 14 10 46 33 71 53 60 46 130 95 136 95 3 0
37 22 77 48 40 27 79 51 87 55 8 4 38 20 65 36 64 39 314 161 329 161 3 0 29
11 58 24 126 56 440 152 608 184 317 62 437 72 785 67 154 -2 312 -9 350 -14z
m3470 -7320 c53 -33 98 -84 171 -191 39 -58 73 -113 77 -122 5 -14 21 -18 84
-20 l78 -3 0 -50 0 -50 -50 -5 -50 -5 -3 -317 c-2 -245 -5 -318 -15 -318 -6 0
-33 16 -59 35 -46 34 -48 37 -48 85 0 56 1 56 -81 36 -135 -32 -222 19 -298
177 -24 47 -41 94 -39 104 2 11 28 25 78 41 41 13 81 28 88 34 20 17 14 59
-14 95 l-25 33 -155 0 c-84 0 -154 -3 -154 -7 -1 -5 -2 -146 -3 -315 -1 -168
-5 -310 -9 -313 -4 -4 -29 7 -55 24 l-48 32 -5 177 -5 177 -80 3 c-117 4 -165
-29 -165 -115 0 -41 51 -155 92 -206 27 -35 29 -40 15 -54 -9 -9 -22 -13 -31
-10 -23 9 -115 152 -145 225 -15 36 -34 70 -42 75 -19 12 -125 -19 -150 -44
-17 -17 -19 -35 -19 -154 0 -74 -2 -135 -5 -135 -21 0 -89 57 -99 82 -10 26
-15 29 -41 24 -109 -20 -133 -19 -189 8 -133 65 -193 205 -130 301 60 94 174
131 262 86 22 -11 43 -25 47 -31 3 -5 15 -10 26 -10 18 0 20 6 17 88 l-3 87
-276 3 -277 2 -7 -27 c-7 -28 -5 -573 2 -608 2 -11 17 -29 33 -40 55 -37 65
-108 27 -185 -46 -92 -139 -108 -278 -50 -103 42 -227 144 -216 175 10 24 32
18 89 -28 90 -71 132 -90 208 -91 74 0 111 18 142 71 15 27 16 32 2 51 -20 29
-36 28 -96 -5 l-49 -27 -31 31 c-20 20 -29 37 -25 48 6 14 51 38 111 59 17 6
17 8 -7 32 -24 23 -27 35 -29 112 l-3 87 -96 3 -96 3 -6 -43 c-10 -75 -64 -95
-108 -39 -11 14 -41 47 -66 74 -58 61 -56 88 7 103 l45 11 0 139 0 139 -110 0
-110 0 -3 -317 c-1 -189 -6 -318 -12 -318 -16 0 -98 59 -104 76 -3 9 -6 29 -6
45 0 35 -12 36 -65 9 -52 -27 -164 -27 -220 -1 -47 22 -70 42 -110 94 -24 33
-29 48 -29 101 -1 52 4 69 26 103 36 55 113 93 187 93 55 0 131 -26 145 -49 4
-6 20 -18 37 -26 l29 -16 0 106 0 105 -310 0 -310 0 0 -320 c0 -176 -3 -320
-8 -320 -4 0 -31 16 -59 35 l-53 35 -2 283 -3 282 -45 3 c-50 4 -60 13 -60 57
0 45 10 54 70 57 62 3 59 -2 41 98 -17 89 13 160 82 197 38 20 144 22 202 4
55 -17 156 -68 187 -94 15 -12 36 -30 47 -39 19 -16 29 -48 16 -48 -3 0 -45
19 -93 42 -75 36 -98 43 -167 46 -71 3 -84 1 -114 -20 -41 -28 -69 -78 -77
-141 l-7 -47 1239 -1 c682 0 1246 0 1254 0 8 0 215 0 458 1 405 1 443 2 438
17 -4 9 -27 47 -52 84 -58 87 -96 111 -174 110 l-60 -1 -25 50 c-39 77 -34 88
40 89 23 1 53 -7 70 -18z m-6778 -37 c50 -16 137 -62 161 -85 10 -8 30 -24 45
-33 28 -19 37 -56 14 -56 -7 0 -23 7 -35 16 -12 8 -54 28 -93 45 -93 38 -189
41 -239 7 -40 -28 -71 -84 -78 -143 l-5 -45 965 0 c531 0 973 -3 982 -6 13 -5
16 -17 14 -53 l-3 -46 -55 -5 -55 -5 -5 -315 c-3 -173 -8 -315 -11 -315 -3 0
-27 13 -52 29 l-47 30 0 275 c0 152 -4 282 -8 289 -6 9 -33 12 -98 10 l-89 -3
-3 -317 c-1 -175 -6 -318 -10 -318 -4 0 -30 16 -59 36 l-52 36 -57 -28 c-83
-40 -189 -45 -264 -12 -81 36 -120 79 -120 132 0 28 7 52 20 69 24 30 25 50 5
67 -46 38 -60 145 -25 190 17 23 27 25 117 30 l98 5 0 55 0 55 -200 0 -200 0
-3 -317 c-1 -189 -6 -318 -12 -318 -16 0 -98 59 -104 76 -3 9 -6 29 -6 45 0
21 -5 29 -18 29 -10 0 -23 -5 -29 -11 -6 -6 -37 -17 -69 -25 -106 -24 -216 17
-276 103 -58 85 -40 197 43 261 78 61 201 56 291 -11 60 -44 58 -47 58 67 l0
106 -310 0 -310 0 0 -320 c0 -176 -3 -320 -6 -320 -3 0 -30 16 -60 36 l-54 36
-2 281 -3 282 -45 3 c-50 4 -60 13 -60 57 0 44 10 52 64 53 62 2 73 12 56 52
-7 16 -12 60 -12 96 0 57 3 70 29 102 54 68 161 85 280 46z m3101 -302 c2 -1
2 -23 0 -49 l-3 -48 -55 -5 -55 -5 -3 -317 c-1 -175 -5 -318 -7 -318 -5 0 -69
40 -99 62 -5 3 -9 120 -8 270 1 144 -1 273 -5 286 -5 22 -9 23 -97 20 l-91 -3
-2 -314 c-2 -173 -5 -316 -8 -319 -2 -2 -26 10 -52 27 -46 31 -48 34 -53 89
-4 42 -9 56 -19 54 -8 -2 -40 -10 -70 -18 -123 -32 -216 23 -290 169 -57 112
-54 124 31 152 37 12 74 28 83 35 21 18 19 73 -5 103 -20 25 -25 26 -138 29
l-117 3 0 50 0 50 209 2 c114 1 210 3 211 5 4 3 638 -7 643 -10z m-3820 -49
l3 -52 -58 -3 -58 -3 -3 -317 c-1 -175 -5 -318 -8 -318 -3 0 -27 14 -53 32
-45 29 -49 35 -55 82 -3 28 -6 158 -6 289 l0 237 -89 0 c-87 0 -89 -1 -95 -25
-4 -14 -6 -156 -5 -316 0 -160 -2 -293 -5 -296 -3 -3 -18 3 -33 13 -15 10 -37
23 -48 29 -18 9 -21 23 -25 115 l-5 105 -80 0 c-58 0 -91 6 -119 19 l-38 19
-34 -39 c-18 -21 -33 -43 -34 -47 0 -4 41 -51 90 -103 49 -51 90 -98 90 -103
0 -5 -7 -14 -15 -21 -18 -15 -43 9 -260 250 -91 102 -105 139 -65 175 17 16
25 17 59 7 64 -20 62 -23 59 101 l-3 112 -135 5 -135 5 -3 44 c-2 28 1 47 10
52 7 5 269 8 583 6 l570 -2 3 -52z m8322 14 l45 -22 3 -343 c1 -233 -1 -342
-8 -342 -6 0 -33 11 -60 25 l-50 25 0 340 c0 266 3 340 13 339 6 0 32 -10 57
-22z"/>
<path d="M4502 8536 c-110 -40 -170 -187 -130 -318 17 -56 86 -130 137 -145
49 -15 137 -17 146 -3 3 6 14 10 23 10 44 1 112 94 112 153 0 37 0 37 -41 37
-50 0 -79 -15 -79 -40 0 -25 -51 -60 -87 -60 -69 1 -118 99 -93 189 22 83 98
105 156 47 33 -33 38 -35 85 -29 27 3 52 10 55 14 8 14 -22 75 -52 102 -54 50
-159 69 -232 43z"/>
<path d="M5025 8533 c-6 -4 -15 -19 -21 -33 -73 -158 -105 -231 -124 -280 -8
-19 -22 -50 -32 -68 -10 -18 -18 -41 -18 -52 0 -18 7 -20 58 -20 l59 0 18 40
c20 44 31 47 113 31 44 -9 71 -33 72 -64 0 -20 7 -23 72 -31 33 -4 48 -2 51 8
3 7 -20 98 -50 202 -30 104 -58 204 -63 222 -5 19 -10 36 -13 38 -9 9 -112 15
-122 7z m68 -206 c3 -18 8 -42 12 -54 7 -22 4 -23 -38 -23 l-46 0 10 33 c25
90 52 108 62 44z"/>
<path d="M5325 8498 c-3 -7 -6 -31 -8 -52 l-2 -39 53 -12 c29 -7 56 -15 59
-19 4 -4 -3 -48 -15 -99 -48 -202 -53 -229 -49 -241 7 -17 96 -42 106 -30 8 9
29 86 67 252 10 44 23 76 32 80 8 3 35 0 60 -7 55 -14 69 -5 74 50 4 47 -6 55
-80 69 -26 4 -76 15 -112 24 -168 41 -178 43 -185 24z"/>
<path d="M4118 8479 c-20 -11 -23 -41 -9 -85 5 -16 14 -56 20 -89 7 -33 16
-79 21 -102 12 -53 -2 -87 -41 -103 -70 -29 -94 5 -129 182 -25 126 -38 161
-57 154 -8 -4 -25 -6 -37 -6 -12 0 -30 -6 -40 -13 -18 -13 -18 -17 -2 -98 48
-238 73 -295 143 -324 73 -31 193 -6 248 51 49 50 55 116 25 252 -6 23 -14 61
-20 85 -5 23 -12 57 -15 75 -6 30 -9 32 -48 32 -23 0 -50 -5 -59 -11z"/>
<path d="M5792 8378 c-7 -7 -12 -19 -12 -28 0 -9 -4 -20 -8 -25 -5 -6 -14 -30
-22 -55 -7 -25 -30 -97 -51 -160 -49 -144 -50 -162 -6 -178 73 -26 69 -32 141
191 36 111 66 210 66 219 0 11 -14 24 -36 33 -44 18 -56 19 -72 3z"/>
<path d="M3470 8269 c-25 -11 -63 -28 -85 -39 -22 -10 -48 -20 -57 -24 -31
-10 -26 -29 49 -196 16 -36 47 -104 68 -152 23 -52 45 -88 54 -88 8 0 44 14
80 31 36 17 81 38 98 46 37 17 92 67 111 100 15 29 15 128 -1 173 -20 57 -55
107 -99 140 -37 26 -50 30 -107 30 -45 0 -80 -6 -111 -21z m168 -128 c40 -50
52 -122 27 -158 -38 -55 -125 -78 -125 -34 0 10 -3 20 -6 24 -3 3 -21 41 -40
84 -38 87 -36 92 29 109 47 12 93 2 115 -25z"/>
<path d="M6059 8252 c-98 -26 -195 -197 -170 -299 28 -110 114 -177 226 -177
76 0 126 29 184 106 23 31 51 123 51 168 -1 62 -36 127 -92 168 -38 27 -58 33
-110 37 -34 2 -75 1 -89 -3z m117 -118 c70 -34 63 -153 -14 -221 -57 -52 -152
-7 -152 71 0 50 36 121 73 145 39 25 49 26 93 5z"/>
<path d="M3020 8034 c-74 -46 -138 -88 -142 -92 -4 -4 12 -39 37 -77 25 -39
48 -77 52 -85 3 -8 27 -46 51 -85 25 -38 56 -87 69 -108 21 -33 28 -38 50 -32
14 3 37 14 52 24 77 51 122 80 174 111 31 19 57 41 57 50 0 21 -37 80 -51 80
-6 0 -30 -13 -54 -30 -24 -16 -46 -30 -50 -30 -3 0 -23 -12 -45 -26 -43 -29
-75 -26 -85 7 -7 20 18 59 36 59 12 0 129 80 129 88 0 17 -41 72 -54 72 -7 0
-24 -8 -37 -18 -37 -28 -128 -82 -139 -82 -5 0 -16 13 -24 28 l-15 28 65 42
c35 23 68 42 72 42 13 0 52 44 52 58 0 22 -32 62 -49 62 -9 -1 -77 -39 -151
-86z"/>
<path d="M6513 8023 c-11 -16 -40 -57 -65 -93 -24 -36 -72 -104 -106 -152 -34
-49 -59 -94 -56 -100 2 -7 20 -23 40 -36 29 -19 38 -21 51 -10 13 11 81 102
108 147 14 22 29 32 36 23 4 -4 -1 -67 -9 -141 l-16 -133 25 -19 c13 -11 36
-26 51 -34 27 -15 27 -15 81 58 29 39 70 97 91 127 20 30 54 80 76 111 23 31
38 62 35 70 -7 19 -74 61 -85 54 -5 -3 -39 -49 -76 -101 -36 -51 -68 -94 -71
-94 -7 0 5 146 19 230 8 48 8 65 -1 68 -6 2 -25 15 -40 28 -38 31 -63 30 -88
-3z"/>
<path d="M4550 7850 c-162 -15 -398 -64 -559 -117 -170 -55 -438 -176 -523
-234 -14 -11 -29 -19 -32 -19 -4 0 -41 -24 -83 -52 -41 -29 -85 -60 -97 -68
-215 -148 -468 -405 -631 -639 -47 -68 -145 -231 -145 -241 0 -5 -3 -10 -7
-12 -21 -9 -173 -360 -173 -397 0 -10 -4 -21 -9 -26 -9 -9 -30 -77 -52 -167
-62 -256 -69 -318 -76 -608 -6 -279 1 -363 49 -605 38 -191 129 -449 228 -645
62 -124 186 -320 261 -414 146 -182 252 -291 409 -421 180 -147 325 -242 540
-352 50 -25 134 -30 231 -14 30 6 106 15 169 21 63 6 142 15 175 20 33 5 98
14 145 20 47 6 110 15 140 20 30 5 96 14 145 21 50 6 108 15 130 20 23 5 65 4
100 -1 68 -12 271 -38 390 -51 78 -8 189 -20 385 -40 52 -5 138 -12 190 -15
l95 -6 100 52 c55 29 112 61 127 71 14 11 30 19 35 20 17 1 98 66 101 82 3 16
-18 30 -223 147 -77 44 -104 60 -205 120 -58 34 -118 70 -135 80 -79 45 -377
219 -413 241 -59 35 -95 57 -199 116 -59 35 -130 76 -158 93 -27 16 -63 37
-80 45 -67 35 -67 34 -56 126 6 46 15 136 21 199 l12 115 81 86 c45 48 116
123 157 168 59 63 79 79 95 75 11 -3 81 -35 155 -71 74 -36 191 -92 260 -125
152 -73 299 -144 573 -277 114 -55 260 -126 325 -157 64 -31 199 -97 300 -145
101 -49 192 -89 203 -89 25 0 62 58 151 240 39 80 74 153 79 162 5 10 9 22 9
28 0 6 9 29 19 53 11 23 24 58 30 77 6 19 19 62 30 95 10 33 24 83 30 110 7
28 16 66 21 85 9 35 18 89 42 235 17 108 17 554 0 660 -26 158 -33 201 -43
240 -6 22 -15 57 -20 78 -30 122 -58 209 -100 315 -5 12 -13 32 -18 45 -79
198 -219 441 -350 607 -98 124 -299 335 -371 389 -19 14 -42 33 -50 41 -15 15
-130 103 -166 127 -165 110 -299 184 -499 273 -148 66 -436 145 -641 176 -124
18 -491 27 -624 14z m-344 -752 c4 -13 8 -54 8 -93 l1 -70 70 -1 c39 -1 126
-6 195 -12 116 -9 129 -8 175 11 53 22 104 63 105 85 0 19 25 25 49 13 32 -18
45 -50 51 -126 l5 -70 45 2 c25 1 54 7 65 12 11 6 67 14 125 19 l105 10 47 51
c27 30 48 62 48 75 0 12 4 26 9 32 5 5 11 25 13 44 3 32 5 35 33 32 17 -2 35
-8 40 -15 6 -7 22 -18 36 -24 37 -16 74 -68 94 -130 19 -58 15 -91 -16 -134
-10 -15 -19 -32 -19 -37 0 -5 -16 -23 -36 -38 -35 -28 -45 -36 -93 -76 -12
-10 -26 -18 -31 -18 -6 0 -29 -9 -53 -19 -23 -11 -62 -25 -87 -31 -25 -7 -49
-15 -55 -20 -5 -4 -27 -10 -47 -13 -48 -7 -128 -43 -128 -57 0 -24 72 -42 136
-35 72 7 134 -2 134 -20 0 -18 -86 -105 -104 -105 -8 0 -16 -6 -19 -12 -3 -10
-76 -13 -316 -15 -172 -1 -319 -4 -326 -7 -8 -3 -12 -12 -9 -19 7 -19 -18 -28
-51 -19 -15 4 -43 6 -62 4 -28 -4 -34 -8 -30 -23 5 -17 -1 -19 -62 -19 -45 0
-78 -6 -103 -18 -20 -11 -66 -22 -103 -25 -37 -4 -81 -13 -97 -22 -17 -8 -50
-15 -74 -15 -24 0 -67 -9 -96 -19 -29 -10 -76 -21 -105 -24 -29 -3 -65 -13
-81 -21 -16 -8 -73 -18 -130 -22 -84 -6 -100 -9 -91 -20 9 -12 -1 -14 -62 -15
-178 -3 -181 -2 -260 101 -19 25 -47 58 -62 74 -15 16 -27 33 -27 38 0 5 -11
24 -25 42 -33 44 -75 161 -75 211 1 71 26 151 63 200 33 43 97 95 117 95 5 0
13 7 17 15 10 17 101 65 123 65 8 0 31 8 50 18 19 11 60 22 91 25 31 4 69 14
85 22 16 8 52 15 79 15 28 1 70 6 95 11 25 6 89 17 142 25 54 7 114 20 134 29
20 8 53 15 73 15 20 0 52 8 71 18 19 11 47 22 62 25 15 4 33 13 41 21 12 12
30 18 84 25 6 0 15 -9 19 -21z m164 -1732 c49 -19 126 -54 172 -77 161 -83
380 -246 411 -308 7 -14 18 -35 24 -46 6 -11 15 -31 21 -45 5 -14 15 -38 21
-53 16 -40 14 -197 -3 -233 -8 -16 -22 -46 -31 -67 -42 -91 -163 -191 -257
-213 -128 -30 -305 78 -324 197 -3 19 2 78 10 131 21 130 21 259 0 301 -35 69
-116 129 -219 163 -73 23 -284 27 -385 5 -36 -7 -93 -15 -126 -18 -110 -9
-195 50 -239 169 -23 63 -16 72 59 65 86 -8 201 7 222 28 15 14 28 16 73 10
31 -4 76 -7 101 -8 72 -1 264 13 296 23 51 15 83 11 174 -24z m-953 -178 c4
-7 15 -33 24 -58 17 -49 57 -83 118 -100 54 -15 234 -12 332 5 64 11 94 13
115 5 29 -11 53 -37 54 -57 0 -22 -20 -14 -30 12 -17 44 -89 25 -90 -24 0 -21
30 -51 51 -51 10 0 25 7 33 16 10 9 16 11 16 4 0 -43 -78 -60 -267 -61 -226 0
-394 32 -451 86 -46 43 -42 152 7 204 30 32 73 41 88 19z m810 -154 c106 -66
135 -183 98 -389 -55 -305 33 -415 334 -415 117 0 133 -11 135 -86 1 -43 -2
-49 -44 -85 -25 -22 -56 -45 -70 -52 -14 -8 -34 -18 -45 -24 -11 -6 -31 -15
-45 -21 -14 -5 -38 -15 -53 -21 -43 -17 -149 -14 -199 7 -62 26 -178 46 -191
33 -16 -16 -48 -13 -68 5 -13 12 -41 17 -101 19 -73 2 -92 6 -157 39 -78 40
-202 153 -231 212 -8 16 -22 41 -32 56 -36 54 -29 58 95 58 78 0 136 6 191 20
80 20 176 27 176 12 0 -5 -9 -19 -20 -32 -28 -32 -25 -63 9 -99 43 -46 82 -39
120 22 42 68 47 361 10 607 -14 99 -14 141 2 151 16 10 55 2 86 -17z m-764
-204 c15 -18 29 -20 129 -20 62 0 182 5 265 11 171 13 183 10 183 -45 -1 -85
-70 -106 -350 -105 -224 0 -268 10 -307 68 -25 37 -30 80 -11 99 19 19 71 14
91 -8z m55 -221 c41 -20 54 -21 201 -15 86 3 183 9 215 12 55 6 59 6 51 -12
-14 -33 -11 -66 8 -78 39 -25 75 37 42 74 -19 21 -6 35 24 25 29 -9 31 -27 10
-73 -15 -32 -30 -47 -67 -63 -86 -40 -349 -36 -477 7 -51 18 -85 59 -85 105 0
46 14 49 78 18z"/>
<path d="M3775 6850 c-3 -5 -18 -10 -33 -10 -15 0 -42 -9 -60 -20 -18 -11 -46
-20 -64 -20 -30 0 -94 -14 -133 -30 -11 -5 -41 -11 -68 -14 -26 -3 -67 -15
-92 -26 -24 -11 -48 -20 -52 -20 -24 0 -83 -64 -93 -100 -12 -45 0 -112 24
-139 9 -10 16 -22 16 -27 0 -14 160 -166 210 -199 25 -17 54 -38 64 -47 11
-10 28 -18 38 -18 10 0 18 -3 18 -8 0 -11 50 -29 103 -37 67 -9 101 13 91 58
-3 17 -12 36 -18 43 -6 7 -24 29 -41 49 -16 20 -38 46 -48 56 -26 29 -30 70
-10 95 36 41 97 48 306 34 106 -7 197 -16 202 -20 6 -5 37 -11 70 -14 187 -19
223 -24 253 -34 46 -15 313 -26 332 -13 20 14 7 25 -60 49 -86 31 -122 47
-156 67 -36 21 -58 51 -49 65 4 6 82 10 186 10 176 0 258 10 289 35 8 7 23 15
33 18 9 4 16 10 16 14 -1 4 1 16 5 26 12 26 -1 51 -22 41 -52 -24 -376 -8
-435 21 -15 8 -65 17 -110 21 -45 3 -98 13 -117 22 -67 30 -265 52 -304 33
-12 -5 -39 -12 -61 -15 -22 -2 -62 -8 -89 -12 -48 -7 -49 -6 -43 17 9 32 -18
59 -59 59 -18 0 -36 -4 -39 -10z"/>
<path d="M2945 6650 c3 -5 8 -10 11 -10 2 0 4 5 4 10 0 6 -5 10 -11 10 -5 0
-7 -4 -4 -10z"/>
<path d="M3260 6290 c0 -5 5 -10 11 -10 5 0 7 5 4 10 -3 6 -8 10 -11 10 -2 0
-4 -4 -4 -10z"/>
<path d="M3934 4785 c-7 -41 9 -68 39 -63 51 8 46 90 -5 96 -24 3 -28 -1 -34
-33z"/>
<path d="M2521 7655 c-17 -20 -31 -38 -31 -41 0 -2 36 -39 80 -82 44 -43 80
-81 80 -85 0 -12 -46 -8 -91 9 -24 9 -64 21 -89 26 -25 5 -56 11 -71 14 -20 5
-33 -2 -62 -32 -20 -21 -37 -44 -37 -50 0 -14 305 -308 323 -312 14 -3 77 55
77 70 0 4 -39 46 -87 94 l-88 85 40 -5 c22 -2 81 -16 130 -30 50 -14 99 -25
111 -26 21 0 84 63 84 84 0 17 -311 316 -328 316 -6 0 -24 -16 -41 -35z"/>
<path d="M7044 7506 c-36 -31 -38 -36 -38 -87 1 -42 10 -70 38 -124 39 -74 43
-94 24 -113 -20 -20 -45 -14 -73 20 -23 27 -26 38 -21 73 6 38 4 44 -31 79
l-38 38 -27 -33 c-39 -46 -39 -109 0 -170 43 -67 90 -107 144 -123 61 -18 104
-6 149 40 47 48 46 104 -5 206 -38 79 -43 110 -15 116 29 5 59 -32 59 -74 0
-30 8 -48 33 -76 19 -21 39 -38 44 -38 6 0 21 20 33 44 18 39 20 50 10 85 -24
92 -118 170 -206 171 -32 0 -49 -7 -80 -34z"/>
<path d="M2176 7268 l-36 -43 38 -35 c21 -19 51 -44 67 -55 16 -11 78 -59 138
-107 60 -49 115 -88 123 -88 16 0 64 61 64 83 0 15 -44 54 -151 135 -24 18
-78 59 -120 92 -42 33 -79 60 -82 60 -3 0 -21 -19 -41 -42z"/>
<path d="M7315 7115 c-116 -54 -180 -162 -155 -263 35 -146 179 -219 312 -157
65 30 133 93 154 143 17 41 17 114 1 159 -17 45 -78 109 -123 128 -53 22 -130
18 -189 -10z m171 -110 c11 -8 27 -27 33 -43 17 -40 -8 -94 -61 -132 -74 -54
-142 -48 -172 15 -30 63 1 119 87 159 52 25 75 25 113 1z"/>
<path d="M1970 6973 c-17 -26 -30 -49 -30 -52 1 -13 287 -386 295 -385 6 0 23
19 39 42 31 43 30 54 -6 103 -9 14 -5 28 28 77 l39 61 42 -6 c46 -6 55 -1 91
59 l23 37 -28 7 c-15 3 -59 14 -98 24 -38 10 -115 28 -170 40 -55 12 -113 26
-129 31 -52 16 -65 11 -96 -38z m202 -103 c13 0 33 -6 43 -14 18 -13 18 -15 2
-40 -24 -36 -40 -33 -76 16 -36 48 -39 63 -12 48 11 -5 30 -10 43 -10z"/>
<path d="M1790 6640 c-11 -21 -20 -46 -20 -54 0 -9 39 -34 103 -63 175 -82
202 -98 205 -119 5 -33 -24 -50 -60 -36 -38 14 -44 10 -63 -35 -23 -54 -19
-61 39 -79 52 -16 57 -16 100 0 56 21 97 83 103 155 6 64 -23 105 -107 147
-108 55 -259 124 -270 124 -5 0 -19 -18 -30 -40z"/>
<path d="M7610 6671 c-57 -12 -116 -47 -149 -89 -40 -51 -51 -82 -51 -145 1
-117 89 -217 191 -217 26 0 54 3 63 6 20 8 20 40 -2 84 -16 32 -21 35 -65 38
-40 3 -49 7 -62 32 -22 42 -19 83 9 113 35 38 84 59 139 60 44 1 53 -3 73 -29
28 -34 31 -75 8 -109 -14 -22 -14 -27 0 -56 9 -18 16 -38 16 -46 0 -26 48 -14
74 20 75 99 45 236 -69 314 -34 24 -122 35 -175 24z"/>
<path d="M7895 6204 c-27 -9 -79 -24 -115 -35 -36 -10 -94 -28 -130 -38 -36
-11 -74 -21 -85 -23 -26 -4 -32 -56 -10 -97 18 -36 21 -37 94 -12 31 10 88 28
126 39 186 53 228 67 232 79 3 7 -2 32 -9 55 -17 50 -30 54 -103 32z"/>
<path d="M1560 6024 c-6 -14 -10 -34 -10 -45 0 -11 -9 -57 -19 -102 -11 -45
-22 -103 -26 -128 l-6 -46 43 -11 c24 -6 66 -16 93 -21 28 -6 86 -18 130 -27
44 -9 104 -20 133 -24 63 -7 60 -12 86 120 10 47 22 104 27 127 5 23 9 57 9
77 0 32 -2 35 -41 41 -22 4 -45 3 -50 -2 -8 -8 -30 -94 -48 -193 -6 -32 -10
-35 -36 -32 -46 5 -50 15 -37 84 28 153 31 141 -30 152 -34 6 -37 5 -47 -26
-5 -18 -13 -55 -17 -83 -10 -75 -20 -95 -47 -95 -37 0 -44 15 -34 73 4 28 13
66 18 83 21 72 7 104 -48 104 -27 0 -35 -5 -43 -26z"/>
<path d="M7885 5968 c-49 -11 -135 -30 -190 -42 l-100 -22 3 -44 c1 -25 6 -58
11 -75 5 -16 14 -64 21 -105 15 -97 35 -143 58 -136 9 3 29 8 45 12 36 8 36 8
-4 187 -13 54 -8 64 37 73 29 5 30 4 41 -43 7 -26 15 -66 18 -88 11 -66 21
-77 63 -69 20 3 40 9 44 13 4 3 -3 50 -14 105 -22 108 -19 119 32 114 21 -3
26 -10 32 -48 28 -183 37 -198 103 -168 31 14 31 27 4 172 -32 167 -38 181
-79 183 -19 0 -75 -8 -125 -19z"/>
<path d="M1477 5536 c-9 -24 -8 -88 1 -103 4 -7 38 -13 82 -15 l75 -3 3 -44
c6 -85 2 -90 -86 -93 l-77 -3 -3 -54 c-2 -30 0 -57 5 -62 4 -4 108 -11 230
-15 l222 -7 6 35 c15 77 10 82 -83 89 -46 4 -88 11 -93 16 -6 6 -9 39 -7 74
l3 64 90 0 89 0 9 35 c5 22 4 46 -2 63 l-11 27 -148 0 c-82 0 -183 3 -224 6
-65 6 -76 4 -81 -10z"/>
<path d="M8033 5523 c-9 -3 -13 -27 -13 -69 0 -59 -2 -64 -22 -65 -13 -1 -93
-4 -178 -8 l-155 -6 0 -55 0 -55 180 -5 180 -5 3 -55 c4 -60 12 -70 59 -70 57
0 59 8 50 201 -4 96 -10 180 -12 187 -4 12 -67 16 -92 5z"/>
<path d="M8065 5040 c-22 -10 -84 -37 -137 -60 l-97 -43 -80 14 c-45 7 -84 10
-88 6 -3 -4 -8 -32 -11 -62 -5 -61 -15 -54 109 -73 60 -9 74 -16 170 -88 127
-96 145 -106 157 -91 12 16 23 100 14 113 -4 6 -35 28 -69 49 -101 61 -101 65
19 100 31 9 61 22 66 28 12 15 32 109 26 119 -8 12 -36 8 -79 -12z"/>
<path d="M1480 5040 c-17 -9 -16 -31 10 -245 17 -135 21 -145 64 -145 39 0 69
24 62 49 -2 9 -7 32 -10 52 -6 33 -4 37 21 47 16 6 66 13 113 17 131 9 199 20
211 32 16 16 2 103 -18 110 -8 3 -52 1 -97 -5 -166 -23 -236 -28 -246 -18 -6
6 -10 27 -10 47 0 58 -8 69 -49 69 -20 0 -43 -5 -51 -10z"/>
<path d="M1248 3463 c-43 -2 -78 -8 -78 -13 0 -6 -17 -10 -37 -10 -69 0 -143
-58 -159 -122 -9 -38 6 -35 33 6 26 40 103 96 132 96 11 0 23 5 26 10 8 14
190 13 234 -1 72 -23 121 -53 161 -96 22 -24 40 -49 40 -54 0 -6 4 -8 9 -4 21
12 -38 112 -84 144 -39 26 -127 52 -170 49 -16 -1 -65 -4 -107 -5z"/>
<path d="M8225 3453 c-46 -4 -87 -26 -132 -69 -22 -22 -53 -85 -53 -109 0 -39
15 -37 34 5 22 49 66 93 125 121 25 12 55 27 66 32 25 13 216 12 241 -1 11 -5
40 -20 66 -32 26 -13 54 -30 62 -39 24 -27 56 -91 56 -111 0 -11 5 -20 10 -20
17 0 11 82 -10 125 -15 31 -34 49 -73 71 -50 27 -58 28 -197 30 -80 1 -167 0
-195 -3z"/>
<path d="M1230 3393 c-159 -24 -205 -71 -198 -202 3 -70 6 -80 42 -126 74 -95
163 -159 310 -219 85 -35 120 -11 114 80 l-3 49 -82 7 c-93 8 -190 48 -239 99
-39 41 -24 52 52 38 87 -16 253 -17 290 -1 52 22 66 73 39 140 -31 73 -88 111
-199 131 -60 11 -79 12 -126 4z"/>
<path d="M8292 3385 c-121 -27 -192 -93 -192 -181 1 -43 13 -64 50 -85 30 -17
194 -17 289 1 84 15 101 1 51 -42 -64 -56 -154 -91 -237 -93 -40 -1 -76 -4
-79 -7 -14 -15 -14 -77 0 -111 12 -31 20 -37 45 -37 43 0 157 50 236 104 44
30 135 118 146 141 6 11 16 31 24 45 22 38 19 148 -5 187 -23 38 -81 67 -164
82 -72 13 -84 13 -164 -4z"/>
<path d="M8044 3118 c10 -82 18 -118 27 -124 5 -3 9 -14 9 -26 0 -11 8 -31 19
-44 l18 -23 7 46 c9 69 26 83 105 83 36 0 76 3 88 6 44 12 11 24 -66 24 -106
0 -164 26 -184 83 -13 35 -29 18 -23 -25z"/>
<path d="M1594 3125 c-4 -9 -25 -27 -49 -40 -36 -21 -54 -25 -128 -25 -87 0
-122 -13 -66 -24 18 -3 60 -6 95 -6 l64 0 26 -42 c27 -43 27 -43 37 -18 47
121 57 170 37 170 -6 0 -13 -7 -16 -15z"/>
<path d="M8670 3109 c0 -23 -151 -175 -215 -217 -62 -40 -115 -66 -177 -86
-62 -19 -90 -16 -125 16 l-21 20 -18 -29 c-10 -15 -38 -48 -63 -72 l-46 -43
-420 6 c-691 10 -1319 42 -1890 96 -439 41 -592 59 -793 91 -53 9 -87 9 -125
1 -47 -10 -200 -32 -367 -52 -125 -16 -155 -20 -177 -25 -39 -9 -431 -52 -693
-75 -565 -52 -1261 -69 -1768 -45 -224 11 -222 11 -222 78 0 46 -17 55 -62 33
-20 -11 -44 -14 -63 -10 -37 7 -98 27 -105 34 -3 3 -32 19 -65 35 -39 20 -92
63 -158 128 -54 53 -101 97 -104 97 -8 0 3 -266 16 -380 6 -52 19 -181 30
-287 11 -106 23 -204 27 -218 5 -20 24 -34 93 -66 115 -54 113 -54 216 -88
473 -157 1144 -190 2020 -101 179 18 301 31 375 40 296 37 413 52 465 60 33 5
176 26 317 46 l257 36 188 -31 c262 -44 347 -57 513 -81 249 -34 282 -39 380
-50 214 -24 270 -30 380 -40 63 -5 171 -15 240 -21 169 -16 883 -17 1020 -1
463 54 748 124 992 244 l97 47 5 43 c3 24 10 102 16 173 6 72 15 171 20 220
24 225 40 438 34 460 -6 25 -24 35 -24 14z m-4813 -441 c5 -7 33 -85 62 -173
30 -88 59 -165 65 -172 21 -22 41 9 81 127 81 239 76 230 111 230 l24 0 0
-220 c0 -189 -2 -220 -15 -220 -13 0 -15 24 -15 153 0 83 -3 162 -6 175 l-7
23 -20 -22 c-11 -11 -43 -89 -72 -173 -70 -202 -72 -201 -145 14 -48 141 -59
165 -78 168 -21 3 -22 2 -24 -165 -3 -141 -5 -168 -18 -168 -13 0 -15 31 -18
205 -1 112 0 210 2 217 7 17 61 17 73 1z m503 -116 c0 -147 14 -233 42 -259
28 -25 132 -31 174 -8 18 10 36 25 41 34 4 9 10 93 13 186 4 142 7 170 20 170
13 0 15 -24 15 -160 0 -182 -7 -210 -63 -248 -89 -60 -210 -34 -254 54 -24 48
-27 359 -3 359 13 0 15 -21 15 -128z m566 -57 c50 -148 65 -180 80 -180 13 0
23 12 31 35 7 19 34 100 62 180 48 142 50 145 80 148 l31 3 0 -220 c0 -190 -2
-221 -15 -221 -13 0 -15 24 -15 153 0 83 -3 162 -6 175 l-7 23 -19 -21 c-20
-22 -38 -63 -84 -200 -40 -117 -46 -130 -60 -130 -19 0 -27 18 -79 176 -45
135 -70 183 -87 166 -4 -4 -9 -82 -10 -172 -3 -139 -5 -165 -18 -165 -13 0
-15 31 -18 205 -1 112 0 210 3 218 3 8 17 12 37 10 l33 -3 61 -180z m626 175
c75 -21 102 -101 53 -154 -30 -33 -27 -54 14 -84 37 -27 47 -69 27 -116 -21
-51 -66 -68 -197 -74 -98 -4 -107 -3 -113 14 -6 21 -5 405 1 417 6 11 172 8
215 -3z m408 -40 c9 -25 21 -56 27 -70 6 -14 34 -83 63 -155 29 -71 57 -134
61 -139 15 -17 10 -26 -16 -26 -15 0 -25 6 -25 15 0 8 -11 39 -25 70 l-24 56
-108 -3 -107 -3 -21 -55 c-23 -64 -32 -80 -46 -80 -12 0 -12 25 0 48 12 22 71
177 71 185 0 4 8 26 19 50 10 23 24 56 30 72 6 17 15 43 21 58 8 23 15 28 37
25 22 -2 30 -12 43 -48z m280 -170 c0 -189 -2 -220 -15 -220 -13 0 -15 31 -15
220 0 189 2 220 15 220 13 0 15 -31 15 -220z"/>
<path d="M5375 2638 c-3 -8 -5 -44 -3 -79 l3 -64 88 -3 c84 -3 88 -2 112 24
31 33 32 65 3 98 -20 23 -33 27 -110 32 -73 6 -88 4 -93 -8z"/>
<path d="M5383 2453 c-15 -6 -18 -150 -4 -172 7 -10 29 -13 95 -9 72 4 90 8
110 27 55 52 40 127 -29 147 -40 12 -149 17 -172 7z"/>
<path d="M5876 2547 c-15 -45 -29 -93 -30 -107 -1 -24 1 -25 69 -25 60 0 70 3
73 19 2 10 -1 28 -6 40 -6 11 -21 50 -34 85 -13 36 -28 66 -33 68 -6 1 -23
-34 -39 -80z"/>
<path d="M6630 835 l0 -146 98 3 97 3 0 140 0 140 -97 3 -98 3 0 -146z"/>
<path d="M7624 967 c-2 -7 -3 -56 -2 -108 l3 -94 88 0 88 0 18 31 c31 52 68
64 202 64 l118 0 6 34 c4 18 5 44 3 57 l-3 24 -258 3 c-208 2 -258 0 -263 -11z"/>
<path d="M8647 974 c-3 -4 8 -25 26 -48 47 -61 57 -82 57 -123 0 -43 -10 -52
-84 -74 -46 -13 -96 -48 -96 -67 0 -5 9 -21 20 -35 27 -34 79 -44 144 -27 51
13 134 55 148 75 4 5 8 76 8 158 l0 147 -108 0 c-60 0 -111 -3 -115 -6z"/>
<path d="M5922 747 c-53 -16 -83 -64 -83 -132 -1 -75 14 -91 85 -88 57 2 123
28 194 75 35 24 42 34 42 61 0 38 -34 63 -110 84 -54 14 -84 15 -128 0z"/>
<path d="M7276 707 c-38 -36 -49 -66 -44 -118 2 -26 10 -37 32 -48 25 -12 36
-11 80 3 28 9 75 30 104 46 52 30 53 32 50 72 -4 55 -39 76 -125 77 -56 1 -64
-2 -97 -32z"/>
<path d="M2997 973 c-4 -3 -7 -47 -7 -98 0 -57 -4 -95 -12 -103 -7 -7 -46 -12
-102 -13 -114 -1 -160 -16 -164 -52 -5 -40 33 -55 98 -38 55 14 84 9 118 -22
25 -23 30 -78 9 -95 -7 -6 -48 -10 -93 -9 -93 2 -114 -8 -114 -58 0 -37 28
-55 89 -55 65 0 203 53 254 98 15 13 17 38 17 234 l0 218 -43 0 c-24 0 -47 -3
-50 -7z"/>
<path d="M2089 740 c-51 -27 -72 -63 -73 -127 -1 -71 17 -89 88 -86 57 2 123
28 194 75 35 24 42 34 42 61 0 37 -27 58 -107 82 -63 19 -100 18 -144 -5z"/>
<path d="M4245 970 c-3 -5 -2 -10 2 -10 14 0 71 -103 78 -140 9 -48 -14 -72
-88 -95 -63 -19 -87 -42 -80 -80 8 -40 62 -59 135 -46 63 11 138 44 163 71 13
14 15 44 13 161 l-3 144 -107 3 c-65 2 -109 -1 -113 -8z"/>
<path d="M420 852 c0 -143 2 -149 64 -159 53 -8 101 4 136 37 l31 29 -3 108
-3 108 -112 3 -113 3 0 -129z"/>
</g>
</svg>
